<svg id="toevoegen" xmlns="http://www.w3.org/2000/svg" viewBox="0 0 56.6 56.6"><defs><style>.cls-1{fill:#262626;}</style></defs><path class="cls-1" d="M50.25,6.7H19.53A13,13,0,0,0,6.6,19.64V50.36A13,13,0,0,0,19.53,63.3H50.25A13,13,0,0,0,63.19,50.36V19.64A13,13,0,0,0,50.25,6.7Zm8.94,43.66a9,9,0,0,1-8.94,8.94H19.53a8.94,8.94,0,0,1-8.93-8.94V19.64a8.94,8.94,0,0,1,8.93-8.94H50.25a9,9,0,0,1,8.94,8.94Z" transform="translate(-6.6 -6.7)"/><polygon class="cls-1" points="30.3 14.43 26.3 14.43 26.3 26.3 14.43 26.3 14.43 30.3 26.3 30.3 26.3 42.17 30.3 42.17 30.3 30.3 42.17 30.3 42.17 26.3 30.3 26.3 30.3 14.43"/></svg>