<svg id="Laag_1" data-name="Laag 1" xmlns="http://www.w3.org/2000/svg" viewBox="0 0 860 1080"><defs><style>.cls-1{fill:#f8e613;}.cls-2{fill:#a0a2a3;}.cls-3{fill:#262626;}.cls-4{fill:#63bb95;}.cls-5{fill:#a180b8;}.cls-6{fill:#74bbe8;}</style></defs><path id="Path_26" data-name="Path 26" class="cls-1" d="M299.17,190.73l35.47-61.44L241.76,75.67A33.51,33.51,0,0,0,196,87.93l-54.19,93.85,31.93,18.43a33.51,33.51,0,0,0,45.79-12.27,33.52,33.52,0,0,0,12.27,45.79l31.93,18.44Z"/><path id="Path_27" data-name="Path 27" class="cls-2" d="M699.94,614.42l4.76,17.76a25.8,25.8,0,0,0,31.61,18.24h0l36.79-9.86a23.8,23.8,0,0,0,16.82-29.15h0L773.2,549,751,555a20.88,20.88,0,0,0-14.76,25.58,20.88,20.88,0,0,0-25.57-14.76l-22.18,5.94Z"/><path id="Path_2" data-name="Path 2" class="cls-3" d="M316.2,603.82,284,548.08a66.8,66.8,0,0,1,14.52-83.93,64,64,0,0,1,9.29-6.63q56.51-32.75,113.09-65.34c26.42-15.25,62.36-9.27,82.26,13.9a92.41,92.41,0,0,1,9.68,13.63q31.21,53.7,62.16,107.57c6.35,11,9.88,22.89,9.45,35.69-.74,22.35-10,40.33-28.11,53.56a88.17,88.17,0,0,1-8,5.15q-53.86,31.16-107.77,62.24c-27.53,15.87-61.33,11-83.11-12.07A64,64,0,0,1,349,660.49c-11.06-18.82-21.9-37.77-32.81-56.67m169.84,32,0,.08q27-15.58,54-31.19a62.84,62.84,0,0,0,5.71-3.51,48.7,48.7,0,0,0,13.39-63.64q-31.89-55.41-64-110.73a49.16,49.16,0,0,0-7.05-9.31c-15.85-16.4-39.86-19.62-59.66-8.19L319.26,472.41c-1.78,1-3.5,2.14-5.17,3.32-19.8,13.9-26,42.07-13.95,63Q332,594,364,649.24a59.1,59.1,0,0,0,6.49,9.06c14.11,16.25,39.47,21,58.12,10.61,19.28-10.79,38.31-22,57.44-33.09"/><path class="cls-4" d="M860,122.71V0H556.38l24.43,42.32a69.74,69.74,0,0,0,95.26,25.52l-60.39,34.87L685.41,223.5l60.4-34.87a69.75,69.75,0,0,0,25.53-95.26l34.86,60.4Z"/><path class="cls-5" d="M860,1080V930.11a55.47,55.47,0,0,0-42.42,5.26h0L756.5,970.64l30.67,53.13c-16.94-29.34-53-40.25-80.48-24.37l-61.08,35.26L671.78,1080Z"/><path class="cls-6" d="M0,1080H264.33L196.46,826.87,52.81,865.39,0,879.55ZM73.32,941.91A69.51,69.51,0,0,0,158.46,991a69.51,69.51,0,0,0-49.14,85.14A69.5,69.5,0,0,0,24.19,1027,69.5,69.5,0,0,0,73.32,941.91Z"/></svg>