<svg id="downloaden" xmlns="http://www.w3.org/2000/svg" viewBox="0 0 53.02 50.55"><defs><style>.cls-1{fill:#262626;}</style></defs><path class="cls-1" d="M57.4,40v7.34a8.94,8.94,0,0,1-8.93,8.93H21.32a8.94,8.94,0,0,1-8.94-8.93V40h-4v7.34A13,13,0,0,0,21.32,60.27H48.47A12.94,12.94,0,0,0,61.4,47.34V40Z" transform="translate(-8.38 -9.73)"/><path class="cls-1" d="M34.88,45.64h0a2,2,0,0,0,1.36-.53L47.65,34.56l-2.72-2.93-8,7.43,0-27.41V9.73h-4V39.06l-8-7.43-2.71,2.93L33.52,45.11A2,2,0,0,0,34.88,45.64Z" transform="translate(-8.38 -9.73)"/></svg>