<svg id="filter" xmlns="http://www.w3.org/2000/svg" viewBox="0 0 52.26 61.65"><defs><style>.cls-1{fill:#262626;}</style></defs><path class="cls-1" d="M31.94,34A7.16,7.16,0,0,0,18.1,33.6H8.76v4H18.1a7.16,7.16,0,0,0,13.84-.35v.35H61v-4H31.94Zm-7,4.81a3.17,3.17,0,1,1,3.17-3.16A3.17,3.17,0,0,1,25,38.76Z" transform="translate(-8.76 -4.18)"/><path class="cls-1" d="M41,51.5a7.17,7.17,0,0,0-6.88,5.16H8.76v4H34.09a7.16,7.16,0,0,0,13.75,0H61v-4H47.84A7.17,7.17,0,0,0,41,51.5Zm0,10.33a3.17,3.17,0,1,1,3.16-3.17A3.17,3.17,0,0,1,41,61.83Z" transform="translate(-8.76 -4.18)"/><path class="cls-1" d="M47.84,9.34a7.16,7.16,0,0,0-13.75,0H8.76v4H34.09a7.16,7.16,0,0,0,13.75,0H61v-4ZM41,14.5a3.16,3.16,0,1,1,3.16-3.16A3.17,3.17,0,0,1,41,14.5Z" transform="translate(-8.76 -4.18)"/></svg>