<svg id="opslaan" xmlns="http://www.w3.org/2000/svg" viewBox="0 0 55.96 51.74"><defs><style>.cls-1{fill:#262626;}</style></defs><path class="cls-1" d="M24.88,31,22.16,34,33.54,44.51A2,2,0,0,0,34.9,45h0a2,2,0,0,0,1.36-.53L47.67,34,45,31l-8,7.43V9.13h-4v1.92l0,27.41Z" transform="translate(-7.02 -9.13)"/><path class="cls-1" d="M51.42,18.72H42.85v4h8.57A7.57,7.57,0,0,1,59,30.28V47.93A9,9,0,0,1,50,56.87H20A9,9,0,0,1,11,47.93V30.28a7.57,7.57,0,0,1,7.56-7.56H27v-4h-8.4A11.57,11.57,0,0,0,7,30.28V47.93A13,13,0,0,0,20,60.87H50A13,13,0,0,0,63,47.93V30.28A11.57,11.57,0,0,0,51.42,18.72Z" transform="translate(-7.02 -9.13)"/></svg>