<svg id="uitlog" xmlns="http://www.w3.org/2000/svg" viewBox="0 0 51.72 55.96"><defs><style>.cls-1{fill:#262626;}</style></defs><path class="cls-1" d="M60.75,34.92a2.43,2.43,0,0,0,0-.27,1.94,1.94,0,0,0-.14-.51h0a2.16,2.16,0,0,0-.37-.59L49.69,22.16l-2.93,2.72,7.43,8-27.41,0H24.86v4H54.19l-7.43,8,2.93,2.71L60.24,36.29a2,2,0,0,0,.37-.59h0a1.75,1.75,0,0,0,.14-.51A2.26,2.26,0,0,0,60.75,34.92Z" transform="translate(-9.03 -7.02)"/><path class="cls-1" d="M13,50V20A9,9,0,0,1,22,11H41.63V7H22A13,13,0,0,0,9,20V50A13,13,0,0,0,22,63H41.63V59H22A9,9,0,0,1,13,50Z" transform="translate(-9.03 -7.02)"/></svg>