<svg id="Laag_1" data-name="Laag 1" xmlns="http://www.w3.org/2000/svg" viewBox="0 0 509.94 45.43"><defs><style>.cls-1{fill:#262626;}.cls-2{isolation:isolate;}.cls-3{fill:none;stroke:#262626;}</style></defs><g id="Group_2" data-name="Group 2"><g id="Group_4" data-name="Group 4"><path id="Path_2" data-name="Path 2" class="cls-1" d="M22.48,45.21H11.34A11.56,11.56,0,0,1,0,35.77a11.72,11.72,0,0,1-.19-2q0-11.31,0-22.61A11.57,11.57,0,0,1,9,.07,17.44,17.44,0,0,1,11.9-.2q10.76,0,21.5,0A11.69,11.69,0,0,1,45.17,10.32,12.78,12.78,0,0,1,45.25,12q0,10.77,0,21.54a11.6,11.6,0,0,1-9,11.41,11.08,11.08,0,0,1-2.44.29c-3.77,0-7.55,0-11.33,0M42,22.52h0V11.72a11.3,11.3,0,0,0,0-1.16,8.43,8.43,0,0,0-8.38-7.51q-11.07,0-22.13,0a8.43,8.43,0,0,0-8.4,8.48h0V33.38a9.4,9.4,0,0,0,.05,1.06A8.4,8.4,0,0,0,11.33,42H33.42a11.16,11.16,0,0,0,1.92-.19A8.33,8.33,0,0,0,42,34c0-3.82,0-7.65,0-11.47" transform="translate(0.18 0.22)"/><path id="Path_3" data-name="Path 3" class="cls-1" d="M119.72,28H117V17c1.24,0,2.46,0,3.69,0,.12,0,.27.23.35.39,1.24,2.62,2.47,5.23,3.7,7.86l.09.13c.08-.14.15-.26.21-.38,1.19-2.53,2.39-5.06,3.57-7.6a.6.6,0,0,1,.64-.43c1.13,0,2.26,0,3.41,0V28h-2.75V20.68c-.08.12-.16.23-.23.35-1,2.19-2.05,4.37-3.05,6.57A.56.56,0,0,1,126,28q-1.19,0-2.37,0a.59.59,0,0,1-.64-.43c-1-2.13-2-4.26-3-6.39a.75.75,0,0,0-.26-.35Z" transform="translate(0.18 0.22)"/><path id="Path_4" data-name="Path 4" class="cls-1" d="M62.52,8.16H58.39V6.09h7.25a4.88,4.88,0,0,1-2.23,5.23,8.13,8.13,0,0,1-4,1.2,10,10,0,0,1-5.05-.85,4.84,4.84,0,0,1-3-4.29,5.07,5.07,0,0,1,2.48-4.91,10.46,10.46,0,0,1,9.63,0,3.83,3.83,0,0,1,2,2.68H62.53A.39.39,0,0,1,62.25,5a2.92,2.92,0,0,0-2-1.1,6.92,6.92,0,0,0-3.9.29,2.92,2.92,0,0,0-1.94,2.5,2.61,2.61,0,0,0,1.16,2.69,5.79,5.79,0,0,0,2,.73A6.56,6.56,0,0,0,61,9.73a2.12,2.12,0,0,0,1.49-1.58" transform="translate(0.18 0.22)"/><path id="Path_5" data-name="Path 5" class="cls-1" d="M126.09,5.07h-3a2.47,2.47,0,0,0-2.42-1.4,20.31,20.31,0,0,0-2.7.09,1.85,1.85,0,0,0-.72.27.61.61,0,0,0-.35.78.6.6,0,0,0,.39.37,7.46,7.46,0,0,0,1.73.39c1.17.16,2.35.21,3.5.41a8.12,8.12,0,0,1,2,.69,2.62,2.62,0,0,1,1.5,2.56,2.67,2.67,0,0,1-1.51,2.46,8.4,8.4,0,0,1-3.55.83,10.89,10.89,0,0,1-5.26-.74,3.74,3.74,0,0,1-2.36-3.13c1,0,1.91,0,2.86,0a.38.38,0,0,1,.26.22,1.8,1.8,0,0,0,1.2,1,8.83,8.83,0,0,0,4.45.09.77.77,0,0,0,.4-.16c.17-.19.41-.42.4-.63a.8.8,0,0,0-.42-.62,15.79,15.79,0,0,0-2.36-.43,16.57,16.57,0,0,1-4.36-.77,2.67,2.67,0,0,1-2-2.39A2.88,2.88,0,0,1,115.63,2a8,8,0,0,1,3.23-.71,10,10,0,0,1,5.27.89A3.54,3.54,0,0,1,126,4.58a3.35,3.35,0,0,1,.07.5" transform="translate(0.18 0.22)"/><path id="Path_6" data-name="Path 6" class="cls-1" d="M79.59,32.69c3,0,6,0,9,0a3,3,0,0,1,3,2.87,2.59,2.59,0,0,1-1.5,2.67l-.26.11c.38.28.92.49,1.17.88a3.62,3.62,0,0,1,.33,1.52c.1.9.13,1.81.2,2.8H89.75c-1.25,0-1.39-.13-1.44-1.42,0-.46,0-.93,0-1.4a.89.89,0,0,0-.79-1h-.09c-1.64,0-3.28,0-5,0v3.76H79.59Zm2.88,4.74c1.66,0,3.29,0,4.91,0a1.2,1.2,0,0,0,1.23-1.18,1.14,1.14,0,0,0-.25-.76A1.46,1.46,0,0,0,87.07,35c-1.4,0-2.8,0-4.21,0l-.39,0Z" transform="translate(0.18 0.22)"/><path id="Path_7" data-name="Path 7" class="cls-1" d="M77.44,7.27a1.82,1.82,0,0,1,1.62,2v.05c0,.52,0,1,0,1.55s.18,1,.28,1.51c-1,0-1.9,0-2.85,0-.1,0-.25-.16-.28-.27A6.27,6.27,0,0,1,76,11c0-.45,0-.9,0-1.36a.93.93,0,0,0-.81-1h-.11c-1.63,0-3.26,0-4.94,0v3.77H67.27V1.42h.52c2.5,0,5,0,7.51,0a6.71,6.71,0,0,1,2.17.39,3,3,0,0,1,1,4.79,11.42,11.42,0,0,1-1,.65m-7.31-1H75a1.63,1.63,0,0,0,.37-.08,1.12,1.12,0,0,0,1-1.17,1.16,1.16,0,0,0-1-1.17,3.66,3.66,0,0,0-.81-.09H70.13Z" transform="translate(0.18 0.22)"/><path id="Path_8" data-name="Path 8" class="cls-1" d="M99.6,21.29V23.6H92.48v2h8v2.3H89.67V17h10.79v2.28h-8v2Z" transform="translate(0.18 0.22)"/><path id="Path_9" data-name="Path 9" class="cls-1" d="M93.52,32.63h10.8v2.3h-8v1.93h7.1V39.2H96.37v2h8v2.3H93.52Z" transform="translate(0.18 0.22)"/><path id="Path_10" data-name="Path 10" class="cls-1" d="M142.41,1.45h2.92V5.51h7.21V1.45h3v10.9h-3V8.05h-7.19v4.3h-3Z" transform="translate(0.18 0.22)"/><path id="Path_11" data-name="Path 11" class="cls-1" d="M120.75,32.63h3v4.09h7.18V32.64h2.93V43.53h-2.92V41.41c0-.61,0-1.23,0-1.84,0-.12-.16-.34-.25-.34-2.27,0-4.55,0-6.88,0v4.31h-3Z" transform="translate(0.18 0.22)"/><path id="Path_12" data-name="Path 12" class="cls-1" d="M140.79,8.55a3.75,3.75,0,0,1-2.07,2.95,9.67,9.67,0,0,1-9.14-.06,4.76,4.76,0,0,1-2.52-4.68A5,5,0,0,1,130,2.19a9.42,9.42,0,0,1,4.93-.89,8,8,0,0,1,3.86,1.1,4.06,4.06,0,0,1,2,3,2.35,2.35,0,0,1-.37,0h-1.6c-.61,0-1.14,0-1.54-.64a2.52,2.52,0,0,0-1.82-1,5.78,5.78,0,0,0-3.51.32,2.84,2.84,0,0,0-1.81,2.73,2.81,2.81,0,0,0,1.77,2.8,6,6,0,0,0,4.43.13,2.25,2.25,0,0,0,1.3-1,.4.4,0,0,1,.29-.2h2.86" transform="translate(0.18 0.22)"/><path id="Path_13" data-name="Path 13" class="cls-1" d="M119.12,36.6h-2.85a.37.37,0,0,1-.27-.15A3,3,0,0,0,113.68,35a5.81,5.81,0,0,0-3.37.33,2.86,2.86,0,0,0-1.83,2.81,2.83,2.83,0,0,0,1.88,2.79,5.87,5.87,0,0,0,4.47,0A5.1,5.1,0,0,0,116,40c.11-.09.24-.22.37-.22.9,0,1.8,0,2.82,0a11.12,11.12,0,0,1-.33,1.08A4.06,4.06,0,0,1,116.57,43a10.18,10.18,0,0,1-7.87.08,5.32,5.32,0,0,1-.27-9.7,9.62,9.62,0,0,1,8.33.07A4,4,0,0,1,119,36.09a4.38,4.38,0,0,1,.09.51" transform="translate(0.18 0.22)"/><path id="Path_14" data-name="Path 14" class="cls-1" d="M87.87,21c-1,0-1.91,0-2.84,0a.4.4,0,0,1-.3-.17,3,3,0,0,0-2.16-1.42,6,6,0,0,0-3.1.13,3,3,0,0,0-2.23,2.73,2.91,2.91,0,0,0,2.08,3.12,5.75,5.75,0,0,0,4.2-.07,5.1,5.1,0,0,0,1.18-.93c.1-.09.22-.23.33-.23.93,0,1.87,0,2.84,0a3.87,3.87,0,0,1-1.73,2.76,7.54,7.54,0,0,1-3.74,1.19,9.94,9.94,0,0,1-5.11-.7,5.32,5.32,0,0,1-.1-9.66,9.59,9.59,0,0,1,8.32.08A4,4,0,0,1,87.86,21" transform="translate(0.18 0.22)"/><path id="Path_15" data-name="Path 15" class="cls-1" d="M95,12.38c-1,0-2,0-2.9,0-.13,0-.29-.18-.36-.31-.29-.54-.54-1.1-.84-1.63a.67.67,0,0,0-.46-.3c-1.84,0-3.68,0-5.52,0a.47.47,0,0,0-.5.33c-.26.56-.53,1.1-.82,1.65-.06.12-.21.28-.33.28-1,0-1.93,0-3,0,.44-.86.84-1.67,1.25-2.46,1.37-2.7,2.76-5.39,4.12-8.09a.63.63,0,0,1,.66-.42c.93,0,1.87,0,2.8,0a.59.59,0,0,1,.45.25q2.7,5.24,5.37,10.48a1,1,0,0,1,.06.22M87.63,3.93l-1.95,4h3.93l-2-4" transform="translate(0.18 0.22)"/><path id="Path_16" data-name="Path 16" class="cls-1" d="M111.9,17h2.93s.06.09.06.13c0,2.05.07,4.1-.06,6.14a4.57,4.57,0,0,1-3.91,4.57,9.79,9.79,0,0,1-5.62-.22,4.4,4.4,0,0,1-3.1-4.2c-.11-2.12,0-4.25,0-6.4h3v.5c0,1.62,0,3.25,0,4.88a5.54,5.54,0,0,0,.12,1.15,2.43,2.43,0,0,0,2.12,2,7.11,7.11,0,0,0,2.11,0,2.62,2.62,0,0,0,2.34-2.7c0-1.76,0-3.52.06-5.27V17" transform="translate(0.18 0.22)"/><path id="Path_17" data-name="Path 17" class="cls-1" d="M61.45,32.63h3a65.5,65.5,0,0,1-.05,6.72c-.25,2.49-1.78,3.81-4.43,4.25a9.89,9.89,0,0,1-5.06-.37A4.42,4.42,0,0,1,51.79,39c-.11-2,0-4.1-.06-6.14a1.87,1.87,0,0,1,0-.25h3v5.59a2.81,2.81,0,0,0,2.49,3.09,2.9,2.9,0,0,0,.51,0,6.23,6.23,0,0,0,1.3-.07,2.76,2.76,0,0,0,2.4-2.92c0-1.71,0-3.42,0-5.13v-.56" transform="translate(0.18 0.22)"/><path id="Path_18" data-name="Path 18" class="cls-1" d="M96.09,12.34V1.46h11.16V3.54c0,.35-.26.27-.45.27H99.06V6.15h7.22V8.5H99v3.84Z" transform="translate(0.18 0.22)"/><path id="Path_19" data-name="Path 19" class="cls-1" d="M78.36,32.63V35H73.54v8.53h-3V35H65.72v-2.4Z" transform="translate(0.18 0.22)"/><path id="Path_20" data-name="Path 20" class="cls-1" d="M139.9,43.53V35h-4.81V32.64h12.63V35h-4.8v8.53Z" transform="translate(0.18 0.22)"/><path id="Path_21" data-name="Path 21" class="cls-1" d="M69.2,28h-3v-1a21.7,21.7,0,0,1,0-2.42,2.75,2.75,0,0,0-.93-2.38c-1.44-1.5-2.81-3.06-4.2-4.6-.13-.14-.25-.29-.44-.52,1.27,0,2.43,0,3.6,0,.12,0,.24.14.34.24l2.55,2.9.58.65,2.1-2.37a5.5,5.5,0,0,0,.63-.73A1.55,1.55,0,0,1,72.07,17c.87.05,1.74,0,2.69,0a2.51,2.51,0,0,1-.25.34l-5,5.45a1.24,1.24,0,0,0-.37.93c0,1.25,0,2.49,0,3.73Z" transform="translate(0.18 0.22)"/><path id="Path_22" data-name="Path 22" class="cls-1" d="M51.75,27.94V17.05h3v8.48H63v2.41Z" transform="translate(0.18 0.22)"/><rect id="Rectangle_2" data-name="Rectangle 2" class="cls-1" x="109.04" y="1.67" width="2.93" height="10.91"/></g></g><g class="cls-2"><path d="M250.28,29.65l5.25-15h3.83l5.26,15h-3.33l-1-2.9H254.4l-1,2.9ZM255,24.72h4.82l-1.26-3.93c-.39-1.21-.69-2.25-1.05-3.64h-.22c-.34,1.39-.63,2.43-1,3.65Z" transform="translate(0.18 0.22)"/><path d="M265.14,26l3-.34c0,1.58,1,2.34,2.91,2.34,1.62,0,2.49-.42,2.49-1.24s-1-1.27-2.75-1.71L269,24.65c-1.77-.44-3.6-1.23-3.6-3.15,0-2.14,1.77-3.37,5.32-3.37,3.71,0,5.56,1.22,5.57,3.53l-2.94.34c.05-1.48-.87-2-2.63-2-1.53,0-2.33.36-2.33,1.15s.82,1.12,2.61,1.53l1.76.42c1.78.42,3.87,1.1,3.87,3.4s-1.85,3.42-5.59,3.42C267.14,29.91,265.2,28.63,265.14,26Z" transform="translate(0.18 0.22)"/><path d="M277.79,26l3-.34c0,1.58,1,2.34,2.91,2.34,1.62,0,2.5-.42,2.5-1.24s-1-1.27-2.75-1.71l-1.78-.44c-1.77-.44-3.6-1.23-3.6-3.15,0-2.14,1.78-3.37,5.32-3.37,3.72,0,5.57,1.22,5.58,3.53L286,22c.06-1.48-.87-2-2.63-2-1.52,0-2.33.36-2.33,1.15s.83,1.12,2.61,1.53l1.76.42c1.79.42,3.87,1.1,3.87,3.4s-1.85,3.42-5.59,3.42C279.79,29.91,277.86,28.63,277.79,26Z" transform="translate(0.18 0.22)"/><path d="M303,26.08c-.49,2.54-2.58,3.83-6.09,3.83-4,0-6.24-1.92-6.24-5.58V23.7c0-3.57,2.25-5.58,6.29-5.58,3.84,0,6,1.92,6,5.31a11.74,11.74,0,0,1-.09,1.41h-9C293.88,27,295,28,296.94,28c1.62,0,2.63-.65,2.92-2.22Zm-9.14-3.17h5.94v-.17c0-1.73-1-2.68-2.83-2.68A2.83,2.83,0,0,0,293.82,22.91Z" transform="translate(0.18 0.22)"/><path d="M304.25,26l3-.34c0,1.58,1,2.34,2.91,2.34,1.62,0,2.49-.42,2.49-1.24s-1-1.27-2.75-1.71l-1.77-.44c-1.77-.44-3.6-1.23-3.6-3.15,0-2.14,1.77-3.37,5.32-3.37,3.72,0,5.56,1.22,5.57,3.53l-2.94.34c.05-1.48-.87-2-2.63-2-1.53,0-2.33.36-2.33,1.15s.83,1.12,2.61,1.53l1.76.42c1.78.42,3.87,1.1,3.87,3.4s-1.85,3.42-5.59,3.42C306.25,29.91,304.32,28.63,304.25,26Z" transform="translate(0.18 0.22)"/><path d="M316.91,26l3-.34c0,1.58,1,2.34,2.92,2.34,1.62,0,2.49-.42,2.49-1.24s-1-1.27-2.75-1.71l-1.78-.44c-1.77-.44-3.59-1.23-3.59-3.15,0-2.14,1.77-3.37,5.31-3.37,3.72,0,5.57,1.22,5.58,3.53l-2.94.34c.05-1.48-.87-2-2.64-2-1.52,0-2.33.36-2.33,1.15s.83,1.12,2.61,1.53l1.76.42c1.79.42,3.87,1.1,3.87,3.4s-1.85,3.42-5.58,3.42C318.9,29.91,317,28.63,316.91,26Z" transform="translate(0.18 0.22)"/><path d="M330.08,29.65V18.38h3.13a8.13,8.13,0,0,1-.58,2.85l.22.09c1-2.21,2.41-3.15,4.49-3.15,2.23,0,3.34,1.13,3.09,3.18l.22,0a4.65,4.65,0,0,1,4.62-3.23c2.35,0,3.56,1.14,3.56,3.41v8.07h-3.12V22.29a1.73,1.73,0,0,0-1.95-1.92c-1.75,0-2.74,1.55-2.74,3.9v5.38H337.9V22.31A1.74,1.74,0,0,0,336,20.37c-1.74,0-2.78,1.55-2.78,4.05v5.23Z" transform="translate(0.18 0.22)"/><path d="M362.93,26.08c-.5,2.54-2.58,3.83-6.1,3.83-4,0-6.24-1.92-6.24-5.58V23.7c0-3.57,2.25-5.58,6.29-5.58,3.84,0,6,1.92,6,5.31a14.12,14.12,0,0,1-.08,1.41h-9C353.84,27,355,28,356.9,28c1.62,0,2.63-.65,2.92-2.22Zm-9.15-3.17h5.94v-.17c0-1.73-1-2.68-2.83-2.68A2.84,2.84,0,0,0,353.78,22.91Z" transform="translate(0.18 0.22)"/><path d="M364.75,29.65V18.38h3.14a8.46,8.46,0,0,1-.58,2.87l.21.1a4.93,4.93,0,0,1,4.89-3.18c2.58,0,4,1.25,4,3.61v7.87h-3.13V22.53a2,2,0,0,0-2.2-2.23c-2,0-3.17,1.58-3.17,4.11v5.24Z" transform="translate(0.18 0.22)"/><path d="M379.33,26.54V20.42h-1.86v-2h1.86V15.87l3.13-.8v3.31h3.73v2h-3.73V26c0,1.19.53,1.66,1.67,1.66a5.44,5.44,0,0,0,2.05-.42l-.17,2a7.43,7.43,0,0,1-3.07.59C380.52,29.9,379.33,28.82,379.33,26.54Z" transform="translate(0.18 0.22)"/><path d="M392.48,29.65v-15h6.32q7.06,0,7.06,7.5v.05q0,7.47-7.06,7.48Zm3.17-2.22h3c2.71,0,4-1.52,4-4.9v-.78c0-3.39-1.26-4.92-4-4.92h-3Z" transform="translate(0.18 0.22)"/><path d="M407.29,27v0c0-2.36,2-3.33,5.07-3.9l3.05-.56v-.63c0-1.3-.73-1.87-2.28-1.87-1.72,0-2.61.78-2.48,2.51l-3.08-.26c-.16-2.62,1.78-4.13,5.63-4.13,3.62,0,5.32,1.22,5.32,3.78v5.17c0,.79.15.9,1.3.92l-.37,1.86a6.06,6.06,0,0,1-.89.07c-2.46,0-2.89-.9-2.48-3l-.22-.06c-.68,1.92-2.52,3-5,3C408.56,29.93,407.29,28.87,407.29,27Zm8.12-2.14v-.52l-2,.38c-2,.39-3,.82-3,1.94v0c0,.77.57,1.15,1.62,1.15A3.16,3.16,0,0,0,415.41,24.87Z" transform="translate(0.18 0.22)"/><path d="M420.51,26l3-.34c0,1.58,1,2.34,2.91,2.34,1.63,0,2.5-.42,2.5-1.24s-1-1.27-2.75-1.71l-1.78-.44c-1.77-.44-3.6-1.23-3.6-3.15,0-2.14,1.78-3.37,5.32-3.37,3.72,0,5.57,1.22,5.58,3.53l-2.95.34c.06-1.48-.87-2-2.63-2-1.52,0-2.33.36-2.33,1.15s.83,1.12,2.61,1.53l1.76.42c1.79.42,3.87,1.1,3.87,3.4s-1.85,3.42-5.59,3.42C422.51,29.91,420.58,28.63,420.51,26Z" transform="translate(0.18 0.22)"/><path d="M433.68,29.65v-15h3.13V18.1a8.87,8.87,0,0,1-.58,3.15l.23.09a4.87,4.87,0,0,1,4.88-3.17c2.57,0,4,1.25,4,3.61v7.87h-3.13V22.53a2,2,0,0,0-2.2-2.21c-2,0-3.17,1.56-3.17,4.09v5.24Z" transform="translate(0.18 0.22)"/><path d="M450.22,26.84l-.23.08a10.64,10.64,0,0,1,.57,2.73H447.4v-15h3.13v3.06a11,11,0,0,1-.55,3.43l.22.09a4.57,4.57,0,0,1,4.61-3.05c3.23,0,4.92,2,4.92,5.73v.26c0,3.75-1.69,5.72-4.92,5.72A4.52,4.52,0,0,1,450.22,26.84Zm6.37-2.59v-.49c0-2.45-1-3.7-3-3.7s-3.1,1.31-3.1,3.75v.39c0,2.42,1.09,3.72,3.1,3.72S456.59,26.69,456.59,24.25Z" transform="translate(0.18 0.22)"/><path d="M461.22,24.17v-.31c0-3.78,2.3-5.75,6.22-5.75s6.21,2,6.21,5.75v.31c0,3.78-2.31,5.75-6.21,5.75S461.22,28,461.22,24.17Zm9.22.16V23.7c0-2.48-1.11-3.62-3-3.62s-3,1.14-3,3.62v.63c0,2.48,1.12,3.62,3,3.62S470.44,26.81,470.44,24.33Z" transform="translate(0.18 0.22)"/><path d="M474.93,27v0c0-2.36,2-3.33,5.07-3.9l3.06-.56v-.63c0-1.3-.73-1.87-2.28-1.87-1.73,0-2.61.78-2.48,2.51l-3.09-.26c-.16-2.62,1.79-4.13,5.63-4.13,3.62,0,5.32,1.22,5.32,3.78v5.17c0,.79.15.9,1.3.92l-.37,1.86a6,6,0,0,1-.89.07c-2.46,0-2.89-.9-2.48-3l-.21-.06c-.69,1.92-2.53,3-5,3C476.2,29.93,474.93,28.87,474.93,27Zm8.13-2.14v-.52l-2,.38c-2,.39-3,.82-3,1.94v0c0,.77.57,1.15,1.62,1.15A3.16,3.16,0,0,0,483.06,24.87Z" transform="translate(0.18 0.22)"/><path d="M488.77,29.65V18.38h3.14a7.69,7.69,0,0,1-.6,2.87l.2.1c1.16-2.34,2.33-3.14,4.86-3.33l.36,2.6c-4,.16-4.83,1-4.83,4.34v4.69Z" transform="translate(0.18 0.22)"/><path d="M497.43,24.14v-.26c0-3.76,1.7-5.71,4.92-5.71a4.57,4.57,0,0,1,4.62,3l.21-.09a11.34,11.34,0,0,1-.55-3.43V14.62h3.13v15H506.6a11.09,11.09,0,0,1,.57-2.73l-.22-.08a4.54,4.54,0,0,1-4.6,3C499.13,29.86,497.43,27.89,497.43,24.14Zm9.2.06v-.39c0-2.44-1.08-3.75-3.1-3.75s-2.94,1.25-2.94,3.7v.49c0,2.44,1,3.67,2.94,3.67S506.63,26.62,506.63,24.2Z" transform="translate(0.18 0.22)"/></g><line id="Line_1" data-name="Line 1" class="cls-3" x1="203.01" y1="45.21" x2="203.01" y2="0.22"/></svg>