<svg id="Laag_1" data-name="Laag 1" xmlns="http://www.w3.org/2000/svg" viewBox="0 0 734.07 45.43"><defs><style>.cls-1{fill:#262626;}.cls-2{isolation:isolate;}.cls-3{fill:#eaeaea;}</style></defs><g id="Group_2" data-name="Group 2"><g id="Group_4" data-name="Group 4"><path id="Path_2" data-name="Path 2" class="cls-1" d="M22.59,45.45H11.45A11.57,11.57,0,0,1,.13,36a10.87,10.87,0,0,1-.19-2q0-11.29,0-22.6A11.56,11.56,0,0,1,9.13.31,15.44,15.44,0,0,1,12,0q10.76,0,21.5,0A11.67,11.67,0,0,1,45.28,10.55a15,15,0,0,1,.08,1.64q0,10.77,0,21.54a11.6,11.6,0,0,1-9,11.41,10.57,10.57,0,0,1-2.44.29c-3.77,0-7.55,0-11.33,0m19.5-22.69h0V12a11.16,11.16,0,0,0,0-1.16,8.43,8.43,0,0,0-8.38-7.52q-11.07,0-22.14,0a8.45,8.45,0,0,0-8.4,8.48h0V33.61c0,.35,0,.71.05,1.06a8.43,8.43,0,0,0,8.24,7.55H33.53A10.33,10.33,0,0,0,35.45,42a8.32,8.32,0,0,0,6.62-7.79c0-3.83,0-7.65,0-11.48" transform="translate(0.07 -0.02)"/><path id="Path_3" data-name="Path 3" class="cls-1" d="M119.83,28.18h-2.75V17.25c1.24,0,2.46,0,3.68,0,.13,0,.28.24.35.39,1.25,2.62,2.48,5.24,3.71,7.86l.08.13a4,4,0,0,0,.22-.37c1.19-2.54,2.39-5.07,3.57-7.61a.58.58,0,0,1,.64-.42c1.13,0,2.25,0,3.41,0V28.18H130V20.92a4,4,0,0,0-.23.34c-1,2.19-2,4.37-3,6.57a.58.58,0,0,1-.62.39c-.79,0-1.58,0-2.37,0a.61.61,0,0,1-.65-.43c-1-2.14-2-4.27-3-6.39a.83.83,0,0,0-.26-.35Z" transform="translate(0.07 -0.02)"/><path id="Path_4" data-name="Path 4" class="cls-1" d="M62.63,8.4H58.5V6.33h7.24a4.86,4.86,0,0,1-2.22,5.23,8.23,8.23,0,0,1-4,1.2,10.18,10.18,0,0,1-5.05-.85,4.85,4.85,0,0,1-3-4.29,5.07,5.07,0,0,1,2.48-4.91,10.43,10.43,0,0,1,9.63,0,3.81,3.81,0,0,1,2,2.68H62.64a.42.42,0,0,1-.28-.14,2.92,2.92,0,0,0-2-1.1,6.83,6.83,0,0,0-3.9.28,2.92,2.92,0,0,0-1.94,2.5,2.63,2.63,0,0,0,1.16,2.7,5.77,5.77,0,0,0,2,.72A6.55,6.55,0,0,0,61.14,10a2.12,2.12,0,0,0,1.49-1.58" transform="translate(0.07 -0.02)"/><path id="Path_5" data-name="Path 5" class="cls-1" d="M126.2,5.3h-3a2.48,2.48,0,0,0-2.41-1.4,20.25,20.25,0,0,0-2.7.09,1.85,1.85,0,0,0-.72.27.61.61,0,0,0-.35.79.6.6,0,0,0,.39.37,8.5,8.5,0,0,0,1.73.39c1.17.15,2.35.21,3.5.41a7.51,7.51,0,0,1,2,.69,2.64,2.64,0,0,1,1.5,2.56,2.66,2.66,0,0,1-1.51,2.45,8.26,8.26,0,0,1-3.55.83,10.87,10.87,0,0,1-5.26-.74,3.71,3.71,0,0,1-2.36-3.13c1,0,1.91,0,2.86,0,.09,0,.22.13.26.22a1.82,1.82,0,0,0,1.2,1,9.06,9.06,0,0,0,4.45.09.87.87,0,0,0,.4-.16c.17-.19.41-.43.4-.64a.79.79,0,0,0-.42-.61,16.06,16.06,0,0,0-2.36-.44A15.72,15.72,0,0,1,116,7.56a2.67,2.67,0,0,1-2-2.39,2.9,2.9,0,0,1,1.8-2.93,7.86,7.86,0,0,1,3.23-.7,10,10,0,0,1,5.27.88,3.56,3.56,0,0,1,1.89,2.39c0,.15,0,.31.07.5" transform="translate(0.07 -0.02)"/><path id="Path_6" data-name="Path 6" class="cls-1" d="M79.7,32.93c3,0,6-.06,9,0a3,3,0,0,1,3,2.87,2.58,2.58,0,0,1-1.5,2.67l-.26.12c.38.27.92.48,1.17.87A3.65,3.65,0,0,1,91.47,41c.1.9.13,1.81.2,2.8H89.86c-1.25,0-1.39-.13-1.44-1.41,0-.47,0-.94,0-1.4a.89.89,0,0,0-.79-1h-.09c-1.64,0-3.28,0-5,0v3.77H79.7Zm2.88,4.73c1.66,0,3.29.06,4.91,0a1.21,1.21,0,0,0,1.23-1.19,1.24,1.24,0,0,0-.25-.76,1.48,1.48,0,0,0-1.29-.52H83c-.12,0-.25,0-.39,0Z" transform="translate(0.07 -0.02)"/><path id="Path_7" data-name="Path 7" class="cls-1" d="M77.55,7.51a1.81,1.81,0,0,1,1.62,2v0c0,.52,0,1,0,1.55s.18,1,.28,1.52c-1,0-1.91,0-2.85,0-.1,0-.25-.16-.28-.27a6.29,6.29,0,0,1-.23-1.13c0-.45,0-.9,0-1.35a.92.92,0,0,0-.82-1h-.11c-1.62,0-3.25,0-4.93,0v3.77H67.37V1.65h.53c2.5,0,5,0,7.51,0a6.72,6.72,0,0,1,2.17.4A3,3,0,0,1,79.2,5.92a2.89,2.89,0,0,1-.61.93,10.15,10.15,0,0,1-1,.66m-7.31-1h4.81a1.59,1.59,0,0,0,.38-.07,1.14,1.14,0,0,0,.95-1.17,1.16,1.16,0,0,0-1-1.17A3.72,3.72,0,0,0,74.61,4H70.24Z" transform="translate(0.07 -0.02)"/><path id="Path_8" data-name="Path 8" class="cls-1" d="M99.71,21.52v2.32H92.59v2h8v2.3H89.78V17.28h10.79v2.27h-8v2Z" transform="translate(0.07 -0.02)"/><path id="Path_9" data-name="Path 9" class="cls-1" d="M93.63,32.86h10.8v2.3h-8V37.1h7.1v2.33h-7.1v2h8v2.3H93.63Z" transform="translate(0.07 -0.02)"/><path id="Path_10" data-name="Path 10" class="cls-1" d="M142.52,1.69h2.92V5.75h7.21V1.69h3v10.9h-3V8.29h-7.19v4.3h-2.95Z" transform="translate(0.07 -0.02)"/><path id="Path_11" data-name="Path 11" class="cls-1" d="M120.86,32.86h3V37H131V32.87h2.93V43.76H131V41.64c0-.61,0-1.22,0-1.84,0-.12-.16-.34-.25-.34-2.27,0-4.55,0-6.88,0v4.31h-3Z" transform="translate(0.07 -0.02)"/><path id="Path_12" data-name="Path 12" class="cls-1" d="M140.9,8.79a3.72,3.72,0,0,1-2.07,2.94,9.69,9.69,0,0,1-9.15-.06A4.76,4.76,0,0,1,127.17,7a5,5,0,0,1,2.91-4.57A9.4,9.4,0,0,1,135,1.54a7.83,7.83,0,0,1,3.86,1.09,4.12,4.12,0,0,1,2,3,2.33,2.33,0,0,1-.37,0c-.53,0-1.07,0-1.6,0s-1.14.06-1.54-.64a2.53,2.53,0,0,0-1.83-1,5.76,5.76,0,0,0-3.5.32,2.82,2.82,0,0,0-1.81,2.73A2.82,2.82,0,0,0,132,9.88a6,6,0,0,0,4.44.12,2.24,2.24,0,0,0,1.3-1,.4.4,0,0,1,.28-.19c.94,0,1.87,0,2.87,0" transform="translate(0.07 -0.02)"/><path id="Path_13" data-name="Path 13" class="cls-1" d="M119.23,36.83h-2.85a.35.35,0,0,1-.27-.14,3,3,0,0,0-2.32-1.47,5.72,5.72,0,0,0-3.37.33,2.83,2.83,0,0,0-1.83,2.81,2.8,2.8,0,0,0,1.87,2.78,5.8,5.8,0,0,0,4.48,0,5.06,5.06,0,0,0,1.14-.92c.11-.09.24-.22.37-.23.9,0,1.8,0,2.82,0a9.65,9.65,0,0,1-.33,1.08,4,4,0,0,1-2.26,2.14,10.23,10.23,0,0,1-7.87.09,5.31,5.31,0,0,1-.27-9.7,9.56,9.56,0,0,1,8.32.06,4.05,4.05,0,0,1,2.28,2.68c0,.15,0,.3.09.52" transform="translate(0.07 -0.02)"/><path id="Path_14" data-name="Path 14" class="cls-1" d="M88,21.24H85.14a.38.38,0,0,1-.3-.18,3,3,0,0,0-2.16-1.41,5.94,5.94,0,0,0-3.1.13,3,3,0,0,0-2.23,2.72,2.92,2.92,0,0,0,2.08,3.13,5.8,5.8,0,0,0,4.2-.07,5.37,5.37,0,0,0,1.18-.94c.1-.08.22-.22.33-.22.93,0,1.86,0,2.84,0a3.86,3.86,0,0,1-1.73,2.75,7.54,7.54,0,0,1-3.74,1.19,9.94,9.94,0,0,1-5.11-.7A5.31,5.31,0,0,1,77.3,18a9.6,9.6,0,0,1,8.32.08A4,4,0,0,1,88,21.24" transform="translate(0.07 -0.02)"/><path id="Path_15" data-name="Path 15" class="cls-1" d="M95.09,12.62c-1,0-2,0-2.9,0-.13,0-.29-.17-.36-.31-.29-.53-.54-1.1-.84-1.63a.64.64,0,0,0-.46-.29c-1.84,0-3.69,0-5.53,0a.48.48,0,0,0-.5.33c-.25.55-.52,1.1-.81,1.64-.06.13-.22.28-.33.28-1,0-1.93,0-3,0,.44-.87.84-1.67,1.25-2.47,1.37-2.7,2.76-5.39,4.12-8.09a.61.61,0,0,1,.65-.41c.94,0,1.88,0,2.81,0a.58.58,0,0,1,.44.24Q92.35,7.15,95,12.4a.79.79,0,0,1,.06.22M87.74,4.16l-2,4h3.94l-2-4" transform="translate(0.07 -0.02)"/><path id="Path_16" data-name="Path 16" class="cls-1" d="M112,17.26h2.93s.06.1.06.14c0,2.05.07,4.1-.06,6.14A4.57,4.57,0,0,1,111,28.1a9.7,9.7,0,0,1-5.62-.22,4.4,4.4,0,0,1-3.1-4.19c-.12-2.12,0-4.25,0-6.41h3v.5c0,1.63,0,3.26,0,4.89a5.63,5.63,0,0,0,.13,1.15,2.44,2.44,0,0,0,2.12,2,7.11,7.11,0,0,0,2.11,0A2.63,2.63,0,0,0,112,23.15c0-1.76,0-3.51.06-5.27v-.62" transform="translate(0.07 -0.02)"/><path id="Path_17" data-name="Path 17" class="cls-1" d="M61.56,32.86h3a65.69,65.69,0,0,1-.05,6.73c-.25,2.48-1.78,3.8-4.43,4.24A9.89,9.89,0,0,1,55,43.47a4.45,4.45,0,0,1-3.08-4.22c-.1-2,0-4.1,0-6.14a2.17,2.17,0,0,1,0-.25h3v5.6a2.81,2.81,0,0,0,2.49,3.08,2.9,2.9,0,0,0,.51,0,6.27,6.27,0,0,0,1.3-.08,2.76,2.76,0,0,0,2.4-2.92c0-1.71,0-3.42,0-5.13v-.56" transform="translate(0.07 -0.02)"/><path id="Path_18" data-name="Path 18" class="cls-1" d="M96.19,12.58V1.69h11.17V3.78c0,.34-.26.26-.45.26H99.17V6.39h7.22V8.74H99.14v3.84Z" transform="translate(0.07 -0.02)"/><path id="Path_19" data-name="Path 19" class="cls-1" d="M78.47,32.86v2.37H73.65v8.53h-3v-8.5H65.82v-2.4Z" transform="translate(0.07 -0.02)"/><path id="Path_20" data-name="Path 20" class="cls-1" d="M140,43.76v-8.5H135.2V32.87h12.63v2.36H143v8.53Z" transform="translate(0.07 -0.02)"/><path id="Path_21" data-name="Path 21" class="cls-1" d="M69.31,28.18h-3v-1a21.71,21.71,0,0,1,0-2.42,2.74,2.74,0,0,0-.93-2.37c-1.44-1.5-2.81-3.07-4.2-4.61-.13-.14-.25-.29-.44-.51,1.26,0,2.43,0,3.6,0,.12,0,.24.14.33.25.86,1,1.71,1.93,2.56,2.9l.58.64,2.1-2.36a6.22,6.22,0,0,0,.63-.73,1.57,1.57,0,0,1,1.63-.73c.87.05,1.74,0,2.69,0l-.25.35-5,5.44a1.27,1.27,0,0,0-.37.94c0,1.24,0,2.48,0,3.72Z" transform="translate(0.07 -0.02)"/><path id="Path_22" data-name="Path 22" class="cls-1" d="M51.86,28.18V17.28h3v8.49h8.25v2.41Z" transform="translate(0.07 -0.02)"/><rect id="Rectangle_2" data-name="Rectangle 2" class="cls-1" x="109.04" y="1.67" width="2.93" height="10.91"/></g></g><g class="cls-2"><path d="M250.39,30.24l5.24-15h3.84l5.26,15H261.4l-1-2.9h-5.9l-1,2.9Zm4.66-4.93h4.83l-1.26-3.94c-.39-1.21-.69-2.25-1.05-3.64h-.22c-.34,1.39-.63,2.43-1,3.65Z" transform="translate(0.07 -0.02)"/><path d="M265.25,26.63l3-.35c0,1.58,1,2.34,2.91,2.34,1.62,0,2.49-.41,2.49-1.24s-1-1.27-2.75-1.71l-1.77-.44c-1.78-.44-3.6-1.22-3.6-3.15,0-2.14,1.77-3.37,5.32-3.37,3.71,0,5.56,1.22,5.57,3.53l-2.94.34c.05-1.48-.87-2-2.63-2-1.53,0-2.34.36-2.34,1.15s.83,1.13,2.61,1.53l1.77.42c1.78.42,3.86,1.1,3.86,3.4s-1.84,3.42-5.58,3.42C267.25,30.49,265.31,29.22,265.25,26.63Z" transform="translate(0.07 -0.02)"/><path d="M277.9,26.63l3-.35c0,1.58,1,2.34,2.91,2.34,1.62,0,2.49-.41,2.49-1.24s-1-1.27-2.75-1.71l-1.77-.44c-1.77-.44-3.6-1.22-3.6-3.15,0-2.14,1.77-3.37,5.32-3.37,3.72,0,5.56,1.22,5.57,3.53l-2.94.34c.06-1.48-.87-2-2.63-2-1.53,0-2.33.36-2.33,1.15s.83,1.13,2.61,1.53l1.76.42c1.78.42,3.87,1.1,3.87,3.4s-1.85,3.42-5.59,3.42C279.9,30.49,278,29.22,277.9,26.63Z" transform="translate(0.07 -0.02)"/><path d="M303.07,26.66c-.49,2.55-2.58,3.83-6.09,3.83-4,0-6.24-1.92-6.24-5.58v-.62c0-3.58,2.24-5.59,6.28-5.59,3.85,0,6,1.92,6,5.32a11.71,11.71,0,0,1-.09,1.4h-9c.07,2.13,1.23,3.13,3.13,3.13,1.63,0,2.64-.64,2.93-2.21Zm-9.14-3.17h5.94v-.17c0-1.73-1-2.68-2.84-2.68A2.83,2.83,0,0,0,293.93,23.49Z" transform="translate(0.07 -0.02)"/><path d="M304.36,26.63l3-.35c0,1.58,1,2.34,2.91,2.34,1.62,0,2.49-.41,2.49-1.24s-1-1.27-2.75-1.71l-1.77-.44c-1.77-.44-3.6-1.22-3.6-3.15,0-2.14,1.77-3.37,5.32-3.37,3.71,0,5.56,1.22,5.57,3.53l-2.94.34c0-1.48-.87-2-2.63-2-1.53,0-2.33.36-2.33,1.15s.82,1.13,2.61,1.53l1.76.42c1.78.42,3.87,1.1,3.87,3.4s-1.85,3.42-5.59,3.42C306.36,30.49,304.42,29.22,304.36,26.63Z" transform="translate(0.07 -0.02)"/><path d="M317,26.63l3-.35c0,1.58,1,2.34,2.91,2.34,1.63,0,2.5-.41,2.5-1.24s-1-1.27-2.75-1.71l-1.78-.44c-1.77-.44-3.6-1.22-3.6-3.15,0-2.14,1.78-3.37,5.32-3.37,3.72,0,5.57,1.22,5.58,3.53l-2.95.34c.06-1.48-.87-2-2.63-2-1.52,0-2.33.36-2.33,1.15s.83,1.13,2.61,1.53l1.76.42c1.79.42,3.87,1.1,3.87,3.4s-1.85,3.42-5.59,3.42C319,30.49,317.08,29.22,317,26.63Z" transform="translate(0.07 -0.02)"/><path d="M330.18,30.24V19h3.14a8.13,8.13,0,0,1-.58,2.85l.22.09c1.05-2.21,2.41-3.15,4.49-3.15,2.23,0,3.34,1.13,3.09,3.18l.21.06a4.66,4.66,0,0,1,4.62-3.24c2.36,0,3.57,1.14,3.57,3.41v8.08h-3.13V22.87A1.72,1.72,0,0,0,343.87,21c-1.75,0-2.74,1.55-2.74,3.9v5.39H338V22.89A1.73,1.73,0,0,0,336.09,21c-1.74,0-2.78,1.55-2.78,4.05v5.24Z" transform="translate(0.07 -0.02)"/><path d="M363,26.66c-.49,2.55-2.57,3.83-6.09,3.83-4,0-6.24-1.92-6.24-5.58v-.62c0-3.58,2.25-5.59,6.29-5.59,3.84,0,6,1.92,6,5.32,0,.46,0,.88-.08,1.4h-9c.08,2.13,1.24,3.13,3.14,3.13,1.62,0,2.63-.64,2.92-2.21Zm-9.14-3.17h5.94v-.17c0-1.73-1-2.68-2.83-2.68A2.83,2.83,0,0,0,353.89,23.49Z" transform="translate(0.07 -0.02)"/><path d="M364.86,30.24V19H368a8.56,8.56,0,0,1-.58,2.88l.21.09a4.93,4.93,0,0,1,4.89-3.18c2.58,0,4,1.25,4,3.61v7.88h-3.12V23.11a2,2,0,0,0-2.2-2.23c-2,0-3.17,1.58-3.17,4.11v5.25Z" transform="translate(0.07 -0.02)"/><path d="M379.44,27.12V21h-1.86V19h1.86V16.45l3.12-.8V19h3.74v2h-3.74v5.61c0,1.18.54,1.65,1.68,1.65a5.44,5.44,0,0,0,2.05-.42l-.17,2.05a7.46,7.46,0,0,1-3.07.59C380.63,30.48,379.44,29.4,379.44,27.12Z" transform="translate(0.07 -0.02)"/><path d="M392.59,30.24v-15h6.32q7.06,0,7.06,7.51v0c0,5-2.35,7.49-7.06,7.49ZM395.75,28h3c2.71,0,4-1.52,4-4.9v-.78c0-3.38-1.26-4.92-4-4.92h-3Z" transform="translate(0.07 -0.02)"/><path d="M407.4,27.59v0c0-2.36,2-3.33,5.07-3.9l3-.56v-.63c0-1.3-.73-1.87-2.28-1.87-1.73,0-2.61.78-2.48,2.51l-3.08-.25c-.16-2.63,1.78-4.14,5.63-4.14,3.62,0,5.31,1.22,5.31,3.78v5.17c0,.79.16.9,1.3.92l-.36,1.86a6,6,0,0,1-.89.08c-2.46,0-2.89-.91-2.48-3l-.22-.05c-.69,1.91-2.52,3-5,3C408.67,30.52,407.4,29.45,407.4,27.59Zm8.12-2.13v-.53l-2,.39c-2,.38-3,.81-3,1.93v0c0,.78.57,1.15,1.62,1.15A3.15,3.15,0,0,0,415.52,25.46Z" transform="translate(0.07 -0.02)"/><path d="M420.62,26.63l3-.35c0,1.58,1,2.34,2.91,2.34,1.62,0,2.49-.41,2.49-1.24s-1-1.27-2.75-1.71l-1.77-.44c-1.77-.44-3.6-1.22-3.6-3.15,0-2.14,1.78-3.37,5.32-3.37,3.72,0,5.56,1.22,5.58,3.53l-2.95.34c.06-1.48-.87-2-2.63-2-1.52,0-2.33.36-2.33,1.15s.83,1.13,2.61,1.53l1.76.42c1.78.42,3.87,1.1,3.87,3.4s-1.85,3.42-5.59,3.42C422.62,30.49,420.69,29.22,420.62,26.63Z" transform="translate(0.07 -0.02)"/><path d="M433.79,30.24v-15h3.13v3.48a9,9,0,0,1-.58,3.16l.22.08a4.89,4.89,0,0,1,4.89-3.17c2.57,0,4,1.25,4,3.61v7.88h-3.13V23.11a2,2,0,0,0-2.2-2.21c-2,0-3.17,1.56-3.17,4.09v5.25Z" transform="translate(0.07 -0.02)"/><path d="M450.33,27.42l-.23.08a11.06,11.06,0,0,1,.57,2.74h-3.16v-15h3.13v3.06a11.1,11.1,0,0,1-.55,3.44l.21.08a4.6,4.6,0,0,1,4.62-3.05c3.23,0,4.92,2,4.92,5.73v.27c0,3.74-1.69,5.71-4.92,5.71A4.51,4.51,0,0,1,450.33,27.42Zm6.37-2.59v-.49c0-2.45-1-3.7-3-3.7s-3.1,1.31-3.1,3.75v.39c0,2.43,1.09,3.73,3.1,3.73S456.7,27.27,456.7,24.83Z" transform="translate(0.07 -0.02)"/><path d="M461.33,24.75v-.3c0-3.79,2.29-5.76,6.21-5.76s6.21,2,6.21,5.76v.3c0,3.78-2.31,5.75-6.21,5.75S461.33,28.53,461.33,24.75Zm9.22.16v-.62c0-2.49-1.11-3.63-3-3.63s-3,1.14-3,3.63v.62c0,2.48,1.11,3.62,3,3.62S470.55,27.39,470.55,24.91Z" transform="translate(0.07 -0.02)"/><path d="M475,27.59v0c0-2.36,2-3.33,5.07-3.9l3.05-.56v-.63c0-1.3-.73-1.87-2.27-1.87-1.73,0-2.61.78-2.48,2.51l-3.09-.25c-.16-2.63,1.79-4.14,5.63-4.14,3.62,0,5.32,1.22,5.32,3.78v5.17c0,.79.15.9,1.3.92l-.37,1.86a5.88,5.88,0,0,1-.89.08c-2.46,0-2.89-.91-2.48-3l-.21-.05c-.69,1.91-2.53,3-5,3C476.31,30.52,475,29.45,475,27.59Zm8.12-2.13v-.53l-2,.39c-2,.38-3,.81-3,1.93v0c0,.78.57,1.15,1.62,1.15A3.15,3.15,0,0,0,483.16,25.46Z" transform="translate(0.07 -0.02)"/><path d="M488.88,30.24V19H492a7.63,7.63,0,0,1-.61,2.88l.21.09c1.16-2.34,2.33-3.13,4.85-3.33l.37,2.6c-4,.16-4.84,1-4.84,4.34v4.7Z" transform="translate(0.07 -0.02)"/><path d="M497.54,24.73v-.27c0-3.76,1.69-5.71,4.92-5.71a4.58,4.58,0,0,1,4.62,3l.21-.08a11.1,11.1,0,0,1-.55-3.44V15.2h3.13v15h-3.16a11.06,11.06,0,0,1,.57-2.74l-.23-.08a4.51,4.51,0,0,1-4.59,3C499.23,30.44,497.54,28.47,497.54,24.73Zm9.2.05v-.39c0-2.44-1.08-3.75-3.1-3.75s-2.94,1.25-2.94,3.7v.49c0,2.44,1,3.68,2.94,3.68S506.74,27.21,506.74,24.78Z" transform="translate(0.07 -0.02)"/></g><rect class="cls-1" x="202.51" y="0.44" width="1" height="45"/><path class="cls-3" d="M695,35H669.5V9.55H695Zm-24-1.5h22.5V11.05H671Zm12-5.63h-1.5A4.87,4.87,0,0,0,676.64,23h0v-1.5h0a4.86,4.86,0,0,0,4.86-4.85H683a4.86,4.86,0,0,0,4.86,4.85h0V23A4.87,4.87,0,0,0,683,27.9Zm-3.36-5.61a6.31,6.31,0,0,1,2.61,2.61,6.37,6.37,0,0,1,2.61-2.61,6.43,6.43,0,0,1-2.61-2.61A6.37,6.37,0,0,1,679.64,22.29Z" transform="translate(0.07 -0.02)"/><path class="cls-3" d="M721.32,35.28h-.75V33.06A6.33,6.33,0,0,1,716,35.28h-7.34V9.79H716A6.32,6.32,0,0,1,720.57,12V9.79h7.34A6.32,6.32,0,0,1,734,16.28V28.81a6.32,6.32,0,0,1-6.09,6.47Zm.75-1.5h5.82a4.81,4.81,0,0,0,4.61-5V16.26a4.81,4.81,0,0,0-4.63-5h-5.8v5l-1.5,0v-.34a4.81,4.81,0,0,0-4.64-4.63h-5.79V33.78H716a4.81,4.81,0,0,0,4.61-4.63v-.34l1.5,0v5Z" transform="translate(0.07 -0.02)"/><path class="cls-3" d="M637.21,35.19H630.5V21.78H633a6.69,6.69,0,0,1-2.48-5.2V9.87h13.41v2.49a6.69,6.69,0,0,1,5.21-2.49h6.7V23.29h-2.48a6.69,6.69,0,0,1,2.48,5.2v6.7H642.41V32.72a5.68,5.68,0,0,1-.47.51A6.61,6.61,0,0,1,637.21,35.19ZM632,33.69h5.21a5.21,5.21,0,0,0,5.2-5.2h1.5v5.2h10.41v-5.2a5.2,5.2,0,0,0-5.2-5.2h0v-1.5h5.2V11.37h-5.2a5.22,5.22,0,0,0-5.21,5.21h-1.5V11.37H632v5.21a5.2,5.2,0,0,0,5.2,5.2v1.5H632Z" transform="translate(0.07 -0.02)"/><path class="cls-3" d="M617.08,35.28H610a6.56,6.56,0,0,1-5.78-3.49,6.56,6.56,0,0,1-5.78,3.49H591.3V15.83a6.54,6.54,0,0,1,6.53-6.53h19.25Zm-12.14-6.54h0a5,5,0,0,0,5,5h5.61v-23H597.83a5,5,0,0,0-5,5v18h5.61a5,5,0,0,0,5-5h1.5Z" transform="translate(0.07 -0.02)"/><path class="cls-3" d="M570.47,36.14H559.7a8.05,8.05,0,0,1-8-8V9.66h7.24a6.66,6.66,0,0,1,5.9,3.59,6.66,6.66,0,0,1,5.9-3.59h7.24v19A7.48,7.48,0,0,1,570.47,36.14ZM553.16,22.9v5.2a6.55,6.55,0,0,0,6.54,6.54h10.77a6,6,0,0,0,6-6V11.16H570.7a5.16,5.16,0,0,0-5.15,5.15h-1.5a5.16,5.16,0,0,0-5.15-5.15h-5.74Z" transform="translate(0.07 -0.02)"/></svg>